<svg xmlns="http://www.w3.org/2000/svg" xmlns:xlink="http://www.w3.org/1999/xlink" version="1.1" x="0px" y="0px" viewBox="0 0 100 100" enable-background="new 0 0 100 100" xml:space="preserve"><g><g><g><path fill="#FFFFFF" d="M56.996,39.647c0.559,0.559,1.079,1.153,1.55,1.767c1.311,1.714,2.281,3.623,2.889,5.685l-4.111,4.11     c-0.876,0.877-2.298,0.875-3.172,0c-0.198-0.197-0.353-0.424-0.463-0.673c-0.06-0.347-0.138-0.693-0.236-1.021     c-0.438-1.494-1.252-2.866-2.355-3.969c-0.433-0.433-0.911-0.824-1.419-1.167c-3.697-2.469-8.662-1.98-11.806,1.164     L20.282,63.133c-3.645,3.645-3.644,9.579,0.002,13.226c3.647,3.646,9.579,3.646,13.223,0.001l7.09-7.091     c2.327,1.794,4.965,3.16,7.77,4.028l-8.961,8.961c-6.898,6.898-18.125,6.898-25.022,0c-6.9-6.899-6.899-18.125-0.001-25.023     l17.589-17.589c1.899-1.899,4.139-3.309,6.655-4.183c2.119-0.738,4.333-1.068,6.585-0.975c3.909,0.16,7.556,1.556,10.551,4.041     C56.179,38.871,56.594,39.246,56.996,39.647z"></path></g><g><path fill="#FFFFFF" d="M85.617,19.744c6.898,6.898,6.898,18.125,0,25.022l-17.369,17.37c-1.899,1.9-4.137,3.308-6.656,4.183     c-2.115,0.738-4.33,1.067-6.584,0.974c-3.908-0.16-7.555-1.557-10.552-4.042c-0.416-0.337-0.827-0.714-1.229-1.115     c-0.566-0.566-1.084-1.157-1.55-1.772c-1.313-1.711-2.283-3.615-2.893-5.681l4.112-4.112c0.874-0.874,2.299-0.874,3.174,0.002     c0.223,0.223,0.392,0.488,0.509,0.793c0.075,0.191,0.121,0.399,0.136,0.616l0.168,0.653c0.458,1.351,1.23,2.589,2.242,3.601     c0.432,0.433,0.909,0.826,1.416,1.167c3.697,2.469,8.664,1.978,11.808-1.166l17.369-17.369c3.646-3.647,3.646-9.577,0-13.224     c-3.647-3.647-9.579-3.649-13.227-0.002l-6.87,6.87c-2.328-1.792-4.965-3.158-7.771-4.027l8.742-8.742     C67.491,12.844,78.718,12.844,85.617,19.744z"></path></g></g></g></svg>
